<?xml version="1.0" standalone="no"?><!DOCTYPE svg PUBLIC "-//W3C//DTD SVG 1.1//EN" "http://www.w3.org/Graphics/SVG/1.1/DTD/svg11.dtd"><svg t="1578538847428" class="icon" viewBox="0 0 1024 1024" version="1.1" xmlns="http://www.w3.org/2000/svg" p-id="1362" xmlns:xlink="http://www.w3.org/1999/xlink" width="200" height="200"><defs><style type="text/css"></style></defs><path d="M850.481 259.69c-56.749-63.408-142.907-86.516-205.653 22.163 149.483-258.915-415.236-258.915-265.752 0C229.592 22.943-52.767 512 246.204 512c-298.971 0-16.613 489.057 132.871 230.146-149.484 258.916 415.235 258.916 265.752 0C794.31 1001.062 1076.67 512 777.703 512c123.898 0 147.956-83.993 123.008-163.934" fill="#E7402E" p-id="1363"></path><path d="M511.951 951.569c-52.474 0-100.771-15.274-132.51-41.906-23.12-19.4-37.05-44.6-40.282-72.875-0.933-8.158-0.997-16.549-0.199-25.161-7.057 4.996-14.358 9.137-21.888 12.407-26.102 11.339-54.89 11.875-83.252 1.552-38.933-14.17-76.309-48.36-102.545-93.803-26.237-45.443-37.158-94.907-29.964-135.708 5.241-29.723 20.101-54.386 42.971-71.323 6.598-4.885 13.834-9.138 21.689-12.752-7.855-3.614-15.092-7.867-21.689-12.752-22.87-16.937-37.729-41.6-42.971-71.322-7.194-40.802 3.727-90.266 29.964-135.709 26.236-45.443 63.612-79.633 102.545-93.804 28.362-10.323 57.149-9.786 83.252 1.551 7.529 3.271 14.831 7.412 21.889 12.407-0.799-8.611-0.734-17.002 0.198-25.16 3.232-28.275 17.162-53.475 40.282-72.875 31.738-26.632 80.036-41.906 132.51-41.906 52.474 0 100.772 15.274 132.51 41.905 23.12 19.4 37.05 44.6 40.282 72.875 0.933 8.158 0.998 16.552 0.199 25.163 16.744-11.854 34.781-18.849 53.673-20.805 22.039-2.283 44.553 2.273 66.915 13.543 20.004 10.081 38.947 25.025 56.304 44.418 5.611 6.27 5.077 15.902-1.192 21.514-6.27 5.611-15.903 5.078-21.515-1.192-30.222-33.768-65.708-51.255-97.372-47.973-31.553 3.268-59.725 26.01-83.733 67.593-4.206 7.287-13.525 9.784-20.813 5.577-7.287-4.208-9.784-13.525-5.576-20.813 33.302-57.682 30.965-104.902-6.759-136.555-26.339-22.101-67.498-34.777-112.923-34.777s-86.584 12.676-112.923 34.777c-37.695 31.63-40.058 78.802-6.832 136.427l0.074 0.129c4.208 7.288 1.711 16.605-5.576 20.813-7.289 4.208-16.605 1.709-20.813-5.577-33.304-57.681-75.361-79.265-121.64-62.424-32.309 11.76-63.865 41.067-86.578 80.406-22.712 39.339-32.314 81.321-26.343 115.182 8.551 48.496 48.276 74.13 114.883 74.13 8.414 0 15.236 6.821 15.236 15.236s-6.822 15.236-15.236 15.236c-66.606 0-106.332 25.634-114.883 74.13-5.972 33.86 3.631 75.842 26.343 115.181 22.713 39.339 54.27 68.646 86.578 80.405 46.274 16.842 88.337-4.744 121.64-62.425 4.207-7.287 13.526-9.783 20.813-5.577 7.287 4.208 9.784 13.525 5.576 20.813-33.302 57.682-30.966 104.902 6.758 136.556 26.339 22.101 67.498 34.777 112.923 34.777s86.584-12.675 112.923-34.777c37.724-31.654 40.061-78.874 6.759-136.557a15.155 15.155 0 0 1-2.044-7.623c0.007-5.259 2.738-10.371 7.62-13.189 7.29-4.209 16.606-1.709 20.813 5.577 33.304 57.681 75.364 79.268 121.639 62.426 32.31-11.76 63.866-41.066 86.579-80.406 22.713-39.339 32.315-81.322 26.345-115.183-8.552-48.496-48.276-74.129-114.881-74.129-8.414 0-15.236-6.821-15.236-15.236s6.822-15.236 15.236-15.236c47.729 0 81.402-12.877 100.08-38.273 18.485-25.133 21.541-63.727 8.385-105.886-2.507-8.033 1.973-16.577 10.005-19.083 8.03-2.507 16.576 1.972 19.083 10.005 16.312 52.268 11.722 99.507-12.925 133.018-11.096 15.086-26.018 26.998-44.399 35.454 7.857 3.614 15.093 7.866 21.691 12.753 22.87 16.937 37.729 41.6 42.97 71.322 7.194 40.802-3.728 90.267-29.964 135.71-26.237 45.444-63.614 79.634-102.547 93.805-28.36 10.323-57.148 9.785-83.252-1.553-7.529-3.271-14.83-7.411-21.888-12.407 0.798 8.609 0.733 17.003-0.199 25.16-3.232 28.275-17.162 53.475-40.282 72.875-31.739 26.63-80.037 41.904-132.511 41.904z" fill="#3D100B" p-id="1364"></path><path d="M511.952 430.077c-45.245 0-81.923 36.678-81.923 81.923s36.678 81.923 81.923 81.923 81.923-36.678 81.923-81.923-36.678-81.923-81.923-81.923z m0.471 122.178L472.168 512l40.255-40.255L552.678 512l-40.255 40.255zM511.948 353.001c-5.146 0-10.153-2.651-12.942-7.416-0.539-0.922-13.276-22.911-18.878-52.184-7.757-40.535 1.719-75.536 27.402-101.22 5.857-5.858 15.355-5.858 21.213 0 5.858 5.858 5.858 15.355 0 21.213-18.429 18.43-24.921 43.189-19.296 73.591 4.511 24.381 15.357 43.286 15.467 43.474 4.147 7.157 1.728 16.334-5.421 20.498a14.949 14.949 0 0 1-7.545 2.044zM654.14 420.553a14.942 14.942 0 0 1-10.241-4.043c-6.052-5.658-6.37-15.15-0.713-21.201 0.729-0.78 18.168-19.264 44.623-32.99 36.636-19.006 72.884-19.917 104.831-2.633 7.286 3.942 9.997 13.044 6.056 20.33-3.942 7.286-13.041 9.999-20.331 6.056-56.114-30.355-112.7 29.122-113.265 29.726a14.964 14.964 0 0 1-10.96 4.755zM760.446 700.992c-0.465 0-0.933-0.021-1.404-0.065-8.248-0.766-14.314-8.074-13.549-16.322 5.896-63.526-71.019-92.227-71.797-92.509-7.786-2.829-11.805-11.434-8.977-19.22 2.83-7.787 11.438-11.804 19.22-8.977 1.004 0.365 24.85 9.149 47.857 28.094 31.859 26.234 46.925 59.218 43.567 95.384-0.72 7.778-7.259 13.615-14.917 13.615zM502.138 836.176a14.944 14.944 0 0 1-10.655-4.444c-5.828-5.885-5.782-15.38 0.103-21.208 18.516-18.336 25.132-43.064 19.663-73.498-4.386-24.405-15.131-43.365-15.238-43.554-4.109-7.177-1.642-16.34 5.527-20.464 7.168-4.125 16.314-1.68 20.453 5.479 0.535 0.925 13.153 22.978 18.603 52.277 7.547 40.571-2.102 75.521-27.902 101.072a14.961 14.961 0 0 1-10.554 4.34zM261.341 663.079c-12.712 0-25.321-2.451-37.639-7.379-7.69-3.076-11.43-11.804-8.354-19.494 3.076-7.689 11.805-11.431 19.494-8.353 59.228 23.693 108.617-41.875 109.109-42.541 4.926-6.66 14.317-8.064 20.976-3.138 6.658 4.925 8.063 14.316 3.138 20.975-0.636 0.858-15.837 21.217-40.541 37.886-21.71 14.65-44.101 22.044-66.183 22.044zM356.021 433.086c-1.147 0-2.313-0.132-3.477-0.409-1.039-0.247-25.733-6.227-50.769-22.395-34.666-22.387-53.436-53.409-54.277-89.711-0.192-8.28 6.364-15.148 14.645-15.341 8.238-0.184 15.147 6.364 15.34 14.645 1.48 63.772 81.185 83.429 81.989 83.621 8.059 1.913 13.04 9.997 11.127 18.055-1.636 6.893-7.788 11.535-14.578 11.535z" fill="#F4DD50" p-id="1365"></path><path d="M607.701 602.601a14.935 14.935 0 0 1-9.294-3.234c-6.498-5.138-7.601-14.571-2.463-21.07a107.144 107.144 0 0 0 12.267-19.509c3.628-7.449 12.608-10.545 20.054-6.918 7.448 3.627 10.546 12.605 6.919 20.053a137.289 137.289 0 0 1-15.706 24.982 14.981 14.981 0 0 1-11.777 5.696zM633.952 527c-8.284 0-15-6.716-15-15 0-44.777-28.244-85.181-70.282-100.538-7.781-2.843-11.784-11.455-8.941-19.236 2.843-7.782 11.456-11.783 19.236-8.942 53.824 19.663 89.987 71.39 89.987 128.716 0 8.284-6.716 15-15 15z" fill="#FFFFFF" p-id="1366"></path></svg>